<svg xmlns="http://www.w3.org/2000/svg" viewBox="0 0 24 24">
  <!-- Fundo -->
  <rect width="24" height="24" rx="6" fill="#0f172a"/>
  
  <!-- Engrenagem -->
  <g fill="none" stroke="white" stroke-width="2">
    <path d="M12 2l.6 2.2a7.5 7.5 0 011.8.7l2-1 2 2-1 2a7.5 7.5 0 01.7 1.8L22 12l-2.2.6a7.5 7.5 0 01-.7 1.8l1 2-2 2-2-1a7.5 7.5 0 01-1.8.7L12 22l-.6-2.2a7.5 7.5 0 01-1.8-.7l-2 1-2-2 1-2a7.5 7.5 0 01-.7-1.8L2 12l2.2-.6a7.5 7.5 0 01.7-1.8l-1-2 2-2 2 1a7.5 7.5 0 011.8-.7L12 2z"/>
    <circle cx="12" cy="12" r="3"/>
  </g>
</svg>
